# xmcd
#
# Track frame offsets: 
#        150
#        27238
#        44101
#        72775
#        101082
#        133917
#        144762
#        181770
#        204964
#        234621
#        261811
#        294990
#
# Disc length: 4488 seconds
#
# Revision: 2
# Processed by: cddbd v1.5.2PL0 Copyright (c) Steve Scherf et al.
# Submitted via: ExactAudioCopy v0.99pb4
#
DISCID=ad11860c
DTITLE=Big Jack Johnson - Katrina
DYEAR=2009
DGENRE=Blues
TTITLE0=Fourth of July
TTITLE1=Stop Pushing on Me
TTITLE2=Katrina
TTITLE3=Miss Statue of Liberty
TTITLE4=Going down To Big Red's
TTITLE5=The Loughning Blues
TTITLE6=Po' Cow Boogie
TTITLE7=Aint Gonna Do it No More
TTITLE8=Red Car
TTITLE9=The Crying Blues
TTITLE10=Getting Old Mr. Ellis
TTITLE11=Its all Gone
EXTD=YEAR: 2009
EXTT0=
EXTT1=
EXTT2=
EXTT3=
EXTT4=
EXTT5=
EXTT6=
EXTT7=
EXTT8=
EXTT9=
EXTT10=
EXTT11=
PLAYORDER=
